<mxfile host="app.diagrams.net" agent="Mozilla/5.0 (Windows NT 10.0; Win64; x64) AppleWebKit/537.36 (KHTML, like Gecko) Chrome/131.0.0.0 Safari/537.36 Edg/131.0.0.0" version="26.0.2">
  <diagram name="第 1 页" id="PbL1CE4zb-L1lh1sEENB">
    <mxGraphModel dx="1615" dy="1275" grid="1" gridSize="10" guides="1" tooltips="1" connect="1" arrows="1" fold="1" page="0" pageScale="1" pageWidth="827" pageHeight="1169" math="0" shadow="0">
      <root>
        <mxCell id="0" />
        <mxCell id="1" parent="0" />
        <mxCell id="tX2b1ckgWIj9NlgrwpJG-1" value="数据接收" style="rounded=0;whiteSpace=wrap;html=1;fontSize=16;" vertex="1" parent="1">
          <mxGeometry x="-480" y="-330" width="120" height="40" as="geometry" />
        </mxCell>
        <mxCell id="tX2b1ckgWIj9NlgrwpJG-4" value="目标配置数据" style="rounded=0;whiteSpace=wrap;html=1;fontSize=16;" vertex="1" parent="1">
          <mxGeometry x="-280" y="-450" width="120" height="40" as="geometry" />
        </mxCell>
        <mxCell id="tX2b1ckgWIj9NlgrwpJG-5" value="工况数据" style="rounded=0;whiteSpace=wrap;html=1;fontSize=16;" vertex="1" parent="1">
          <mxGeometry x="-280" y="-200" width="120" height="40" as="geometry" />
        </mxCell>
        <mxCell id="tX2b1ckgWIj9NlgrwpJG-6" value="" style="group;fontSize=16;" vertex="1" connectable="0" parent="1">
          <mxGeometry x="-280" y="-360" width="110" height="100" as="geometry" />
        </mxCell>
        <mxCell id="tX2b1ckgWIj9NlgrwpJG-2" value="" style="shape=cylinder3;whiteSpace=wrap;html=1;boundedLbl=1;backgroundOutline=1;size=15;rotation=90;fontSize=16;" vertex="1" parent="tX2b1ckgWIj9NlgrwpJG-6">
          <mxGeometry x="9.166666666666668" y="-10" width="91.66666666666667" height="120" as="geometry" />
        </mxCell>
        <mxCell id="tX2b1ckgWIj9NlgrwpJG-3" value="数据库" style="text;html=1;align=center;verticalAlign=middle;whiteSpace=wrap;rounded=0;fontSize=16;" vertex="1" parent="tX2b1ckgWIj9NlgrwpJG-6">
          <mxGeometry x="9.17" y="30" width="73.33333333333334" height="40" as="geometry" />
        </mxCell>
        <mxCell id="tX2b1ckgWIj9NlgrwpJG-37" style="edgeStyle=orthogonalEdgeStyle;rounded=0;orthogonalLoop=1;jettySize=auto;html=1;entryX=0;entryY=0.5;entryDx=0;entryDy=0;fontSize=16;startSize=8;endSize=8;" edge="1" parent="1" source="tX2b1ckgWIj9NlgrwpJG-8" target="tX2b1ckgWIj9NlgrwpJG-13">
          <mxGeometry relative="1" as="geometry" />
        </mxCell>
        <mxCell id="tX2b1ckgWIj9NlgrwpJG-8" value="可靠性预计" style="rounded=0;whiteSpace=wrap;html=1;fontSize=16;" vertex="1" parent="1">
          <mxGeometry x="-40" y="-480" width="120" height="40" as="geometry" />
        </mxCell>
        <mxCell id="tX2b1ckgWIj9NlgrwpJG-38" style="edgeStyle=orthogonalEdgeStyle;rounded=0;orthogonalLoop=1;jettySize=auto;html=1;entryX=0;entryY=0.5;entryDx=0;entryDy=0;fontSize=16;startSize=8;endSize=8;" edge="1" parent="1" source="tX2b1ckgWIj9NlgrwpJG-9" target="tX2b1ckgWIj9NlgrwpJG-13">
          <mxGeometry relative="1" as="geometry" />
        </mxCell>
        <mxCell id="tX2b1ckgWIj9NlgrwpJG-9" value="可靠性分配" style="rounded=0;whiteSpace=wrap;html=1;fontSize=16;" vertex="1" parent="1">
          <mxGeometry x="-40" y="-420" width="120" height="40" as="geometry" />
        </mxCell>
        <mxCell id="tX2b1ckgWIj9NlgrwpJG-39" style="edgeStyle=orthogonalEdgeStyle;rounded=0;orthogonalLoop=1;jettySize=auto;html=1;entryX=0;entryY=0.5;entryDx=0;entryDy=0;fontSize=16;startSize=8;endSize=8;" edge="1" parent="1" source="tX2b1ckgWIj9NlgrwpJG-10" target="tX2b1ckgWIj9NlgrwpJG-13">
          <mxGeometry relative="1" as="geometry" />
        </mxCell>
        <mxCell id="tX2b1ckgWIj9NlgrwpJG-10" value="故障预测" style="rounded=0;whiteSpace=wrap;html=1;fontSize=16;" vertex="1" parent="1">
          <mxGeometry x="-40" y="-360" width="120" height="40" as="geometry" />
        </mxCell>
        <mxCell id="tX2b1ckgWIj9NlgrwpJG-40" style="edgeStyle=orthogonalEdgeStyle;rounded=0;orthogonalLoop=1;jettySize=auto;html=1;entryX=0;entryY=0.5;entryDx=0;entryDy=0;fontSize=16;startSize=8;endSize=8;" edge="1" parent="1" source="tX2b1ckgWIj9NlgrwpJG-11" target="tX2b1ckgWIj9NlgrwpJG-13">
          <mxGeometry relative="1" as="geometry" />
        </mxCell>
        <mxCell id="tX2b1ckgWIj9NlgrwpJG-11" value="寿命预测" style="rounded=0;whiteSpace=wrap;html=1;fontSize=16;" vertex="1" parent="1">
          <mxGeometry x="-40" y="-300" width="120" height="40" as="geometry" />
        </mxCell>
        <mxCell id="tX2b1ckgWIj9NlgrwpJG-12" value="实时状态" style="rounded=0;whiteSpace=wrap;html=1;fontSize=16;" vertex="1" parent="1">
          <mxGeometry x="-40" y="-240" width="120" height="40" as="geometry" />
        </mxCell>
        <mxCell id="tX2b1ckgWIj9NlgrwpJG-13" value="交互界面" style="rounded=0;whiteSpace=wrap;html=1;textDirection=vertical-lr;fontSize=16;" vertex="1" parent="1">
          <mxGeometry x="160" y="-480" width="40" height="280" as="geometry" />
        </mxCell>
        <mxCell id="tX2b1ckgWIj9NlgrwpJG-14" style="edgeStyle=none;curved=1;rounded=0;orthogonalLoop=1;jettySize=auto;html=1;entryX=0.5;entryY=1;entryDx=0;entryDy=0;entryPerimeter=0;fontSize=16;startSize=8;endSize=8;" edge="1" parent="1" source="tX2b1ckgWIj9NlgrwpJG-1" target="tX2b1ckgWIj9NlgrwpJG-2">
          <mxGeometry relative="1" as="geometry" />
        </mxCell>
        <mxCell id="tX2b1ckgWIj9NlgrwpJG-17" style="edgeStyle=none;curved=1;rounded=0;orthogonalLoop=1;jettySize=auto;html=1;entryX=0.003;entryY=0.462;entryDx=0;entryDy=0;entryPerimeter=0;fontSize=16;startSize=8;endSize=8;" edge="1" parent="1" source="tX2b1ckgWIj9NlgrwpJG-4" target="tX2b1ckgWIj9NlgrwpJG-2">
          <mxGeometry relative="1" as="geometry" />
        </mxCell>
        <mxCell id="tX2b1ckgWIj9NlgrwpJG-18" style="edgeStyle=none;curved=1;rounded=0;orthogonalLoop=1;jettySize=auto;html=1;entryX=1.002;entryY=0.462;entryDx=0;entryDy=0;entryPerimeter=0;fontSize=16;startSize=8;endSize=8;" edge="1" parent="1" source="tX2b1ckgWIj9NlgrwpJG-5" target="tX2b1ckgWIj9NlgrwpJG-2">
          <mxGeometry relative="1" as="geometry" />
        </mxCell>
        <mxCell id="tX2b1ckgWIj9NlgrwpJG-19" style="edgeStyle=orthogonalEdgeStyle;rounded=0;orthogonalLoop=1;jettySize=auto;html=1;entryX=0;entryY=0.5;entryDx=0;entryDy=0;fontSize=16;startSize=8;endSize=8;" edge="1" parent="1" source="tX2b1ckgWIj9NlgrwpJG-2" target="tX2b1ckgWIj9NlgrwpJG-8">
          <mxGeometry relative="1" as="geometry" />
        </mxCell>
        <mxCell id="tX2b1ckgWIj9NlgrwpJG-20" style="edgeStyle=orthogonalEdgeStyle;rounded=0;orthogonalLoop=1;jettySize=auto;html=1;entryX=0;entryY=0.5;entryDx=0;entryDy=0;fontSize=16;startSize=8;endSize=8;" edge="1" parent="1" source="tX2b1ckgWIj9NlgrwpJG-2" target="tX2b1ckgWIj9NlgrwpJG-9">
          <mxGeometry relative="1" as="geometry" />
        </mxCell>
        <mxCell id="tX2b1ckgWIj9NlgrwpJG-21" style="edgeStyle=orthogonalEdgeStyle;rounded=0;orthogonalLoop=1;jettySize=auto;html=1;entryX=0;entryY=0.5;entryDx=0;entryDy=0;fontSize=16;startSize=8;endSize=8;" edge="1" parent="1" source="tX2b1ckgWIj9NlgrwpJG-2" target="tX2b1ckgWIj9NlgrwpJG-10">
          <mxGeometry relative="1" as="geometry" />
        </mxCell>
        <mxCell id="tX2b1ckgWIj9NlgrwpJG-22" style="edgeStyle=orthogonalEdgeStyle;rounded=0;orthogonalLoop=1;jettySize=auto;html=1;entryX=0;entryY=0.5;entryDx=0;entryDy=0;fontSize=16;startSize=8;endSize=8;" edge="1" parent="1" source="tX2b1ckgWIj9NlgrwpJG-2" target="tX2b1ckgWIj9NlgrwpJG-11">
          <mxGeometry relative="1" as="geometry" />
        </mxCell>
        <mxCell id="tX2b1ckgWIj9NlgrwpJG-27" value="" style="endArrow=classic;startArrow=classic;html=1;rounded=0;fontSize=16;startSize=8;endSize=8;entryX=0;entryY=0.5;entryDx=0;entryDy=0;exitX=0.855;exitY=0;exitDx=0;exitDy=4.35;exitPerimeter=0;edgeStyle=orthogonalEdgeStyle;" edge="1" parent="1" source="tX2b1ckgWIj9NlgrwpJG-2" target="tX2b1ckgWIj9NlgrwpJG-12">
          <mxGeometry width="50" height="50" relative="1" as="geometry">
            <mxPoint x="-110" y="-190" as="sourcePoint" />
            <mxPoint x="-60" y="-240" as="targetPoint" />
            <Array as="points">
              <mxPoint x="-120" y="-277" />
              <mxPoint x="-120" y="-220" />
            </Array>
          </mxGeometry>
        </mxCell>
        <mxCell id="tX2b1ckgWIj9NlgrwpJG-28" style="edgeStyle=none;curved=1;rounded=0;orthogonalLoop=1;jettySize=auto;html=1;entryX=0.054;entryY=0.93;entryDx=0;entryDy=0;entryPerimeter=0;fontSize=16;startSize=8;endSize=8;" edge="1" parent="1" source="tX2b1ckgWIj9NlgrwpJG-12" target="tX2b1ckgWIj9NlgrwpJG-13">
          <mxGeometry relative="1" as="geometry" />
        </mxCell>
      </root>
    </mxGraphModel>
  </diagram>
</mxfile>
